<mxfile host="app.diagrams.net" agent="Mozilla/5.0 (Windows NT 10.0; Win64; x64) AppleWebKit/537.36 (KHTML, like Gecko) Chrome/135.0.0.0 Safari/537.36" version="26.2.12">
  <diagram name="Page-1" id="2tjhyxboGAFzKuHwrk1n">
    <mxGraphModel dx="874" dy="439" grid="1" gridSize="10" guides="1" tooltips="1" connect="1" arrows="1" fold="1" page="1" pageScale="1" pageWidth="850" pageHeight="1100" math="0" shadow="0">
      <root>
        <mxCell id="0" />
        <mxCell id="1" parent="0" />
        <mxCell id="CLYXZgzsEHvx2UhTFof5-17" style="edgeStyle=orthogonalEdgeStyle;rounded=0;orthogonalLoop=1;jettySize=auto;html=1;exitX=0;exitY=0.5;exitDx=0;exitDy=0;entryX=0;entryY=0.86;entryDx=0;entryDy=0;entryPerimeter=0;strokeColor=light-dark(#000000,#CC00CC);" edge="1" parent="1" source="CLYXZgzsEHvx2UhTFof5-1" target="CLYXZgzsEHvx2UhTFof5-7">
          <mxGeometry relative="1" as="geometry">
            <mxPoint x="200" y="30" as="targetPoint" />
          </mxGeometry>
        </mxCell>
        <mxCell id="CLYXZgzsEHvx2UhTFof5-1" value="&lt;br&gt;&lt;div&gt;&lt;b style=&quot;&quot;&gt;&lt;font style=&quot;font-size: 15px;&quot;&gt;author&lt;/font&gt;&lt;/b&gt;&lt;/div&gt;&lt;div&gt;&lt;b style=&quot;&quot;&gt;&lt;font style=&quot;font-size: 15px;&quot;&gt;&lt;br&gt;&lt;/font&gt;&lt;/b&gt;&lt;/div&gt;&lt;div&gt;&lt;div style=&quot;&quot;&gt;&lt;b&gt;&lt;font style=&quot;font-size: 15px;&quot;&gt;author_id (PK)&lt;/font&gt;&lt;/b&gt;&lt;/div&gt;&lt;div style=&quot;&quot;&gt;&lt;b&gt;&lt;font style=&quot;font-size: 15px;&quot;&gt;&lt;br&gt;&lt;/font&gt;&lt;/b&gt;&lt;/div&gt;&lt;div style=&quot;&quot;&gt;&lt;b style=&quot;&quot;&gt;&lt;font style=&quot;font-size: 15px;&quot;&gt;name&lt;/font&gt;&lt;/b&gt;&lt;/div&gt;&lt;/div&gt;" style="rounded=0;whiteSpace=wrap;html=1;fillColor=light-dark(#FFFFFF,#0000CC);" vertex="1" parent="1">
          <mxGeometry x="1065" y="340" width="160" height="100" as="geometry" />
        </mxCell>
        <mxCell id="CLYXZgzsEHvx2UhTFof5-4" style="edgeStyle=orthogonalEdgeStyle;rounded=0;orthogonalLoop=1;jettySize=auto;html=1;exitX=1;exitY=0;exitDx=0;exitDy=0;entryX=1;entryY=0;entryDx=0;entryDy=0;" edge="1" parent="1" source="CLYXZgzsEHvx2UhTFof5-3" target="CLYXZgzsEHvx2UhTFof5-3">
          <mxGeometry relative="1" as="geometry">
            <mxPoint x="320" y="40" as="targetPoint" />
          </mxGeometry>
        </mxCell>
        <mxCell id="CLYXZgzsEHvx2UhTFof5-3" value="&lt;b style=&quot;&quot;&gt;&lt;font style=&quot;font-size: 15px;&quot;&gt;book_language&lt;/font&gt;&lt;/b&gt;&lt;div&gt;&lt;span style=&quot;font-size: 15px;&quot;&gt;&lt;b&gt;&lt;br&gt;&lt;/b&gt;&lt;/span&gt;&lt;div&gt;&lt;div style=&quot;&quot;&gt;&lt;b&gt;&lt;font style=&quot;font-size: 15px;&quot;&gt;language_id (PK)&lt;/font&gt;&lt;/b&gt;&lt;/div&gt;&lt;div style=&quot;&quot;&gt;&lt;b&gt;&lt;font style=&quot;font-size: 15px;&quot;&gt;&lt;br&gt;&lt;/font&gt;&lt;/b&gt;&lt;/div&gt;&lt;div style=&quot;&quot;&gt;&lt;b style=&quot;&quot;&gt;&lt;font style=&quot;font-size: 15px;&quot;&gt;language_name&lt;/font&gt;&lt;/b&gt;&lt;/div&gt;&lt;/div&gt;&lt;/div&gt;" style="rounded=0;whiteSpace=wrap;html=1;fillColor=light-dark(#FFFFFF,#0000CC);" vertex="1" parent="1">
          <mxGeometry x="1345" y="30" width="150" height="90" as="geometry" />
        </mxCell>
        <mxCell id="CLYXZgzsEHvx2UhTFof5-5" value="&lt;font style=&quot;font-size: 18px;&quot;&gt;publisher&lt;/font&gt;&lt;div&gt;&lt;div&gt;&lt;font style=&quot;font-size: 18px;&quot;&gt;publisher_id (PK)&lt;/font&gt;&lt;/div&gt;&lt;div&gt;&lt;font style=&quot;font-size: 18px;&quot;&gt;name&lt;/font&gt;&lt;/div&gt;&lt;/div&gt;" style="rounded=0;whiteSpace=wrap;html=1;fillColor=light-dark(#FFFFFF,#0000CC);" vertex="1" parent="1">
          <mxGeometry x="1350" y="280" width="140" height="110" as="geometry" />
        </mxCell>
        <mxCell id="CLYXZgzsEHvx2UhTFof5-12" style="edgeStyle=orthogonalEdgeStyle;rounded=0;orthogonalLoop=1;jettySize=auto;html=1;exitX=1;exitY=0.5;exitDx=0;exitDy=0;entryX=0;entryY=0.5;entryDx=0;entryDy=0;strokeColor=light-dark(#000000,#FF00FF);" edge="1" parent="1" source="CLYXZgzsEHvx2UhTFof5-6" target="CLYXZgzsEHvx2UhTFof5-3">
          <mxGeometry relative="1" as="geometry" />
        </mxCell>
        <mxCell id="CLYXZgzsEHvx2UhTFof5-14" style="edgeStyle=orthogonalEdgeStyle;rounded=0;orthogonalLoop=1;jettySize=auto;html=1;exitX=1;exitY=0.75;exitDx=0;exitDy=0;entryX=0;entryY=0.5;entryDx=0;entryDy=0;fillColor=light-dark(transparent,#000099);strokeColor=light-dark(#000000,#FF00FF);" edge="1" parent="1" source="CLYXZgzsEHvx2UhTFof5-6" target="CLYXZgzsEHvx2UhTFof5-5">
          <mxGeometry relative="1" as="geometry" />
        </mxCell>
        <mxCell id="CLYXZgzsEHvx2UhTFof5-16" style="edgeStyle=orthogonalEdgeStyle;rounded=0;orthogonalLoop=1;jettySize=auto;html=1;exitX=1;exitY=0.25;exitDx=0;exitDy=0;entryX=1;entryY=0.5;entryDx=0;entryDy=0;strokeColor=light-dark(#000000,#FF00FF);" edge="1" parent="1" source="CLYXZgzsEHvx2UhTFof5-6" target="CLYXZgzsEHvx2UhTFof5-7">
          <mxGeometry relative="1" as="geometry" />
        </mxCell>
        <mxCell id="CLYXZgzsEHvx2UhTFof5-6" value="&lt;font style=&quot;font-size: 13px;&quot;&gt;book&lt;/font&gt;&lt;div&gt;&lt;span style=&quot;font-size: 13px;&quot;&gt;&lt;br&gt;&lt;/span&gt;&lt;div&gt;&lt;div&gt;&lt;font style=&quot;font-size: 13px;&quot;&gt;book_id (PK)&lt;/font&gt;&lt;/div&gt;&lt;div&gt;&lt;font style=&quot;font-size: 13px;&quot;&gt;title&lt;/font&gt;&lt;/div&gt;&lt;div&gt;&lt;font style=&quot;font-size: 13px;&quot;&gt;language_id (FK)&lt;/font&gt;&lt;/div&gt;&lt;div&gt;&lt;font style=&quot;font-size: 13px;&quot;&gt;&lt;br&gt;&lt;/font&gt;&lt;/div&gt;&lt;div&gt;&lt;font style=&quot;font-size: 13px;&quot;&gt;publisher_id (FK)&lt;/font&gt;&lt;/div&gt;&lt;/div&gt;&lt;/div&gt;" style="rounded=0;whiteSpace=wrap;html=1;fillColor=light-dark(#FFFFFF,#0000CC);" vertex="1" parent="1">
          <mxGeometry x="1065" y="180" width="150" height="100" as="geometry" />
        </mxCell>
        <mxCell id="CLYXZgzsEHvx2UhTFof5-7" value="&lt;font style=&quot;font-size: 15px;&quot;&gt;book_author&lt;/font&gt;&lt;div&gt;&lt;span style=&quot;font-size: 15px;&quot;&gt;&lt;br&gt;&lt;/span&gt;&lt;div&gt;&lt;div&gt;&lt;font style=&quot;font-size: 15px;&quot;&gt;book_id (PK, FK)&lt;/font&gt;&lt;/div&gt;&lt;div&gt;&lt;font style=&quot;font-size: 15px;&quot;&gt;&lt;br&gt;&lt;/font&gt;&lt;/div&gt;&lt;div&gt;&lt;font style=&quot;font-size: 15px;&quot;&gt;author_id (PK, FK)&lt;/font&gt;&lt;/div&gt;&lt;/div&gt;&lt;/div&gt;" style="rounded=0;whiteSpace=wrap;html=1;fillColor=light-dark(#FFFFFF,#0000FF);" vertex="1" parent="1">
          <mxGeometry x="1070" y="20" width="140" height="100" as="geometry" />
        </mxCell>
        <mxCell id="CLYXZgzsEHvx2UhTFof5-9" style="edgeStyle=orthogonalEdgeStyle;rounded=0;orthogonalLoop=1;jettySize=auto;html=1;exitX=1;exitY=0.5;exitDx=0;exitDy=0;entryX=1;entryY=0.5;entryDx=0;entryDy=0;" edge="1" parent="1" source="CLYXZgzsEHvx2UhTFof5-6" target="CLYXZgzsEHvx2UhTFof5-6">
          <mxGeometry relative="1" as="geometry">
            <mxPoint x="280" y="110" as="targetPoint" />
          </mxGeometry>
        </mxCell>
        <mxCell id="CLYXZgzsEHvx2UhTFof5-18" value="&lt;font style=&quot;font-size: 18px;&quot;&gt;customer&lt;/font&gt;&lt;div&gt;&lt;div&gt;&lt;font style=&quot;font-size: 18px;&quot;&gt;customer_id (PK)&lt;/font&gt;&lt;/div&gt;&lt;div&gt;&lt;font style=&quot;font-size: 18px;&quot;&gt;name&lt;/font&gt;&lt;/div&gt;&lt;div&gt;&lt;font style=&quot;font-size: 18px;&quot;&gt;email&lt;/font&gt;&lt;/div&gt;&lt;/div&gt;" style="rounded=0;whiteSpace=wrap;html=1;fillColor=light-dark(#FFFFFF,#7EA6E0);" vertex="1" parent="1">
          <mxGeometry x="560" y="10" width="145" height="90" as="geometry" />
        </mxCell>
        <mxCell id="CLYXZgzsEHvx2UhTFof5-37" style="edgeStyle=orthogonalEdgeStyle;rounded=0;orthogonalLoop=1;jettySize=auto;html=1;exitX=0.997;exitY=0.659;exitDx=0;exitDy=0;entryX=1.002;entryY=0.873;entryDx=0;entryDy=0;entryPerimeter=0;exitPerimeter=0;strokeColor=light-dark(#000000,#FF0000);" edge="1" parent="1" source="CLYXZgzsEHvx2UhTFof5-20" target="CLYXZgzsEHvx2UhTFof5-21">
          <mxGeometry relative="1" as="geometry" />
        </mxCell>
        <mxCell id="CLYXZgzsEHvx2UhTFof5-20" value="&lt;font style=&quot;font-size: 16px;&quot;&gt;country&lt;/font&gt;&lt;div&gt;&lt;span style=&quot;font-size: 16px;&quot;&gt;&lt;br&gt;&lt;/span&gt;&lt;div&gt;&lt;div&gt;&lt;font style=&quot;font-size: 16px;&quot;&gt;country_id (PK)&lt;/font&gt;&lt;/div&gt;&lt;div&gt;&lt;font style=&quot;font-size: 16px;&quot;&gt;name&lt;/font&gt;&lt;/div&gt;&lt;/div&gt;&lt;/div&gt;" style="rounded=0;whiteSpace=wrap;html=1;fillColor=light-dark(#FFFFFF,#7EA6E0);" vertex="1" parent="1">
          <mxGeometry x="560" y="187.5" width="152.5" height="85" as="geometry" />
        </mxCell>
        <mxCell id="CLYXZgzsEHvx2UhTFof5-21" value="&lt;font style=&quot;font-size: 17px;&quot;&gt;address&lt;/font&gt;&lt;div&gt;&lt;div&gt;&lt;font style=&quot;font-size: 17px;&quot;&gt;address_id (PK)&lt;/font&gt;&lt;/div&gt;&lt;div&gt;&lt;font style=&quot;font-size: 17px;&quot;&gt;street&lt;/font&gt;&lt;/div&gt;&lt;div&gt;&lt;font style=&quot;font-size: 17px;&quot;&gt;city&lt;/font&gt;&lt;/div&gt;&lt;div&gt;&lt;font style=&quot;font-size: 17px;&quot;&gt;country_id (FK)&lt;/font&gt;&lt;/div&gt;&lt;/div&gt;" style="rounded=0;whiteSpace=wrap;html=1;fillColor=light-dark(#FFFFFF,#7EA6E0);" vertex="1" parent="1">
          <mxGeometry x="570" y="350" width="150" height="110" as="geometry" />
        </mxCell>
        <mxCell id="CLYXZgzsEHvx2UhTFof5-23" value="&lt;font style=&quot;font-size: 15px;&quot;&gt;customer_address&lt;/font&gt;&lt;div&gt;&lt;span style=&quot;font-size: 15px;&quot;&gt;&lt;br&gt;&lt;/span&gt;&lt;div&gt;&lt;div&gt;&lt;font style=&quot;font-size: 15px;&quot;&gt;customer_id (PK, FK&lt;/font&gt;&lt;/div&gt;&lt;div&gt;&lt;font style=&quot;font-size: 15px;&quot;&gt;)&lt;/font&gt;&lt;/div&gt;&lt;div&gt;&lt;font style=&quot;font-size: 15px;&quot;&gt;address_id (PK, FK)&lt;/font&gt;&lt;/div&gt;&lt;div&gt;&lt;font style=&quot;font-size: 15px;&quot;&gt;&lt;br&gt;&lt;/font&gt;&lt;/div&gt;&lt;div&gt;&lt;font style=&quot;font-size: 15px;&quot;&gt;status_id (FK)&lt;/font&gt;&lt;/div&gt;&lt;/div&gt;&lt;/div&gt;" style="rounded=0;whiteSpace=wrap;html=1;fillColor=light-dark(#FFFFFF,#7EA6E0);" vertex="1" parent="1">
          <mxGeometry x="800" y="30" width="150" height="130" as="geometry" />
        </mxCell>
        <mxCell id="CLYXZgzsEHvx2UhTFof5-36" style="edgeStyle=orthogonalEdgeStyle;rounded=0;orthogonalLoop=1;jettySize=auto;html=1;exitX=0;exitY=0.75;exitDx=0;exitDy=0;entryX=0;entryY=0.954;entryDx=0;entryDy=0;entryPerimeter=0;strokeColor=light-dark(#000000,#FF0000);" edge="1" parent="1" source="CLYXZgzsEHvx2UhTFof5-24" target="CLYXZgzsEHvx2UhTFof5-23">
          <mxGeometry relative="1" as="geometry">
            <mxPoint x="580" y="170" as="targetPoint" />
          </mxGeometry>
        </mxCell>
        <mxCell id="CLYXZgzsEHvx2UhTFof5-24" value="&lt;font style=&quot;font-size: 16px;&quot;&gt;address_status&lt;/font&gt;&lt;div&gt;&lt;div&gt;&lt;font style=&quot;font-size: 16px;&quot;&gt;status_id (PK)&lt;/font&gt;&lt;/div&gt;&lt;div&gt;&lt;font style=&quot;font-size: 16px;&quot;&gt;status_name&lt;/font&gt;&lt;/div&gt;&lt;/div&gt;" style="rounded=0;whiteSpace=wrap;html=1;fillColor=light-dark(#FFFFFF,#7EA6E0);" vertex="1" parent="1">
          <mxGeometry x="830" y="325" width="120" height="90" as="geometry" />
        </mxCell>
        <mxCell id="CLYXZgzsEHvx2UhTFof5-27" style="edgeStyle=orthogonalEdgeStyle;rounded=0;orthogonalLoop=1;jettySize=auto;html=1;exitX=-0.008;exitY=0.388;exitDx=0;exitDy=0;entryX=1;entryY=0.389;entryDx=0;entryDy=0;entryPerimeter=0;exitPerimeter=0;strokeColor=light-dark(#000000,#FF0000);" edge="1" parent="1" source="CLYXZgzsEHvx2UhTFof5-23" target="CLYXZgzsEHvx2UhTFof5-18">
          <mxGeometry relative="1" as="geometry" />
        </mxCell>
        <mxCell id="CLYXZgzsEHvx2UhTFof5-28" style="edgeStyle=orthogonalEdgeStyle;rounded=0;orthogonalLoop=1;jettySize=auto;html=1;exitX=0;exitY=0.75;exitDx=0;exitDy=0;entryX=1;entryY=0.25;entryDx=0;entryDy=0;strokeColor=light-dark(#000000,#FF0000);" edge="1" parent="1" source="CLYXZgzsEHvx2UhTFof5-23" target="CLYXZgzsEHvx2UhTFof5-21">
          <mxGeometry relative="1" as="geometry" />
        </mxCell>
        <mxCell id="CLYXZgzsEHvx2UhTFof5-46" style="edgeStyle=orthogonalEdgeStyle;rounded=0;orthogonalLoop=1;jettySize=auto;html=1;exitX=1;exitY=0.75;exitDx=0;exitDy=0;entryX=1;entryY=0.5;entryDx=0;entryDy=0;strokeColor=light-dark(#000000,#00FF00);" edge="1" parent="1" source="CLYXZgzsEHvx2UhTFof5-38" target="CLYXZgzsEHvx2UhTFof5-39">
          <mxGeometry relative="1" as="geometry" />
        </mxCell>
        <mxCell id="CLYXZgzsEHvx2UhTFof5-38" value="&lt;font style=&quot;font-size: 15px;&quot;&gt;cust_order&lt;/font&gt;&lt;div&gt;&lt;span style=&quot;font-size: 15px;&quot;&gt;&lt;br&gt;&lt;/span&gt;&lt;div&gt;&lt;div&gt;&lt;font style=&quot;font-size: 15px;&quot;&gt;order_id (PK)&lt;/font&gt;&lt;/div&gt;&lt;div&gt;&lt;font style=&quot;font-size: 15px;&quot;&gt;&lt;br&gt;&lt;/font&gt;&lt;/div&gt;&lt;div&gt;&lt;font style=&quot;font-size: 15px;&quot;&gt;customer_id (FK)&lt;/font&gt;&lt;/div&gt;&lt;div&gt;&lt;font style=&quot;font-size: 15px;&quot;&gt;&lt;br&gt;&lt;/font&gt;&lt;/div&gt;&lt;div&gt;&lt;font style=&quot;font-size: 15px;&quot;&gt;status_id (FK)&lt;/font&gt;&lt;/div&gt;&lt;div&gt;&lt;font style=&quot;font-size: 15px;&quot;&gt;&lt;br&gt;&lt;/font&gt;&lt;/div&gt;&lt;div&gt;&lt;font style=&quot;font-size: 15px;&quot;&gt;shipping_method_id (FK)&lt;/font&gt;&lt;/div&gt;&lt;/div&gt;&lt;/div&gt;" style="rounded=0;whiteSpace=wrap;html=1;fillColor=light-dark(#FFFFFF,#FF0080);" vertex="1" parent="1">
          <mxGeometry x="280" y="12.5" width="180" height="165" as="geometry" />
        </mxCell>
        <mxCell id="CLYXZgzsEHvx2UhTFof5-39" value="&lt;font style=&quot;font-size: 15px;&quot;&gt;order_status&lt;/font&gt;&lt;div&gt;&lt;span style=&quot;font-size: 15px;&quot;&gt;&lt;br&gt;&lt;/span&gt;&lt;div&gt;&lt;div&gt;&lt;font style=&quot;font-size: 15px;&quot;&gt;status_id (PK)&lt;/font&gt;&lt;/div&gt;&lt;div&gt;&lt;font style=&quot;font-size: 15px;&quot;&gt;&lt;br&gt;&lt;/font&gt;&lt;/div&gt;&lt;div&gt;&lt;font style=&quot;font-size: 15px;&quot;&gt;status_name&lt;/font&gt;&lt;/div&gt;&lt;/div&gt;&lt;/div&gt;" style="rounded=0;whiteSpace=wrap;html=1;fillColor=light-dark(#FFFFFF,#FF0080);" vertex="1" parent="1">
          <mxGeometry x="280" y="210" width="180" height="110" as="geometry" />
        </mxCell>
        <mxCell id="CLYXZgzsEHvx2UhTFof5-40" value="&lt;font style=&quot;font-size: 15px;&quot;&gt;shipping_method&lt;/font&gt;&lt;div&gt;&lt;span style=&quot;font-size: 15px;&quot;&gt;&lt;br&gt;&lt;/span&gt;&lt;div&gt;&lt;div&gt;&lt;font style=&quot;font-size: 15px;&quot;&gt;method_id (PK)&lt;/font&gt;&lt;/div&gt;&lt;div&gt;&lt;font style=&quot;font-size: 15px;&quot;&gt;&lt;br&gt;&lt;/font&gt;&lt;/div&gt;&lt;div&gt;&lt;font style=&quot;font-size: 15px;&quot;&gt;method_name&lt;/font&gt;&lt;/div&gt;&lt;/div&gt;&lt;/div&gt;" style="rounded=0;whiteSpace=wrap;html=1;fillColor=light-dark(#FFFFFF,#FF0080);" vertex="1" parent="1">
          <mxGeometry x="280" y="350" width="180" height="100" as="geometry" />
        </mxCell>
        <mxCell id="CLYXZgzsEHvx2UhTFof5-49" style="edgeStyle=orthogonalEdgeStyle;rounded=0;orthogonalLoop=1;jettySize=auto;html=1;exitX=1;exitY=0.25;exitDx=0;exitDy=0;entryX=0;entryY=0.25;entryDx=0;entryDy=0;strokeColor=light-dark(#000000,#00FF00);" edge="1" parent="1" source="CLYXZgzsEHvx2UhTFof5-41" target="CLYXZgzsEHvx2UhTFof5-38">
          <mxGeometry relative="1" as="geometry">
            <Array as="points">
              <mxPoint x="170" y="50" />
              <mxPoint x="225" y="50" />
              <mxPoint x="225" y="54" />
            </Array>
          </mxGeometry>
        </mxCell>
        <mxCell id="CLYXZgzsEHvx2UhTFof5-51" style="edgeStyle=orthogonalEdgeStyle;rounded=0;orthogonalLoop=1;jettySize=auto;html=1;strokeColor=light-dark(#000000,#33FF33);exitX=1;exitY=0.656;exitDx=0;exitDy=0;exitPerimeter=0;" edge="1" parent="1" source="CLYXZgzsEHvx2UhTFof5-41">
          <mxGeometry relative="1" as="geometry">
            <mxPoint x="1060" y="220" as="targetPoint" />
            <mxPoint x="170" y="38.75" as="sourcePoint" />
            <Array as="points">
              <mxPoint x="165" y="100" />
              <mxPoint x="610" y="100" />
              <mxPoint x="610" y="151" />
              <mxPoint x="970" y="151" />
              <mxPoint x="970" y="220" />
            </Array>
          </mxGeometry>
        </mxCell>
        <mxCell id="CLYXZgzsEHvx2UhTFof5-41" value="order_line&lt;div&gt;&lt;br&gt;&lt;div&gt;&lt;div&gt;order_id (PK, FK)&lt;/div&gt;&lt;div&gt;&lt;br&gt;&lt;/div&gt;&lt;div&gt;book_id (PK, FK)&lt;/div&gt;&lt;div&gt;&lt;span style=&quot;background-color: transparent; color: light-dark(rgb(0, 0, 0), rgb(255, 255, 255));&quot;&gt;&lt;br&gt;&lt;/span&gt;&lt;/div&gt;&lt;div&gt;&lt;span style=&quot;background-color: transparent; color: light-dark(rgb(0, 0, 0), rgb(255, 255, 255));&quot;&gt;quantity&lt;/span&gt;&lt;/div&gt;&lt;/div&gt;&lt;/div&gt;" style="rounded=0;whiteSpace=wrap;html=1;fillColor=light-dark(#FFFFFF,#FF0080);" vertex="1" parent="1">
          <mxGeometry x="45" y="20" width="120" height="125" as="geometry" />
        </mxCell>
        <mxCell id="CLYXZgzsEHvx2UhTFof5-52" style="edgeStyle=orthogonalEdgeStyle;rounded=0;orthogonalLoop=1;jettySize=auto;html=1;exitX=1;exitY=0.5;exitDx=0;exitDy=0;entryX=0;entryY=0.25;entryDx=0;entryDy=0;fillColor=light-dark(transparent,#CC0066);strokeColor=light-dark(#000000,#00FF00);" edge="1" parent="1" source="CLYXZgzsEHvx2UhTFof5-42" target="CLYXZgzsEHvx2UhTFof5-38">
          <mxGeometry relative="1" as="geometry">
            <mxPoint x="250" y="70" as="targetPoint" />
          </mxGeometry>
        </mxCell>
        <mxCell id="CLYXZgzsEHvx2UhTFof5-53" style="edgeStyle=orthogonalEdgeStyle;rounded=0;orthogonalLoop=1;jettySize=auto;html=1;exitX=0.985;exitY=0.7;exitDx=0;exitDy=0;entryX=0;entryY=0.5;entryDx=0;entryDy=0;exitPerimeter=0;strokeColor=light-dark(#000000,#00FF00);" edge="1" parent="1" source="CLYXZgzsEHvx2UhTFof5-42" target="CLYXZgzsEHvx2UhTFof5-39">
          <mxGeometry relative="1" as="geometry">
            <Array as="points">
              <mxPoint x="230" y="298" />
              <mxPoint x="230" y="255" />
            </Array>
          </mxGeometry>
        </mxCell>
        <mxCell id="CLYXZgzsEHvx2UhTFof5-42" value="order_history&lt;div&gt;&lt;br&gt;&lt;div&gt;&lt;div&gt;history_id (PK)&lt;/div&gt;&lt;div&gt;&lt;br&gt;&lt;/div&gt;&lt;div&gt;order_id (FK)&lt;/div&gt;&lt;div&gt;&lt;br&gt;&lt;/div&gt;&lt;div&gt;status_id (FK)&lt;/div&gt;&lt;div&gt;&lt;br&gt;&lt;/div&gt;&lt;div&gt;change_date&lt;/div&gt;&lt;/div&gt;&lt;/div&gt;" style="rounded=0;whiteSpace=wrap;html=1;fillColor=light-dark(#FFFFFF,#FF0080);" vertex="1" parent="1">
          <mxGeometry x="35" y="220" width="130" height="140" as="geometry" />
        </mxCell>
        <mxCell id="CLYXZgzsEHvx2UhTFof5-43" style="edgeStyle=orthogonalEdgeStyle;rounded=0;orthogonalLoop=1;jettySize=auto;html=1;exitX=1;exitY=0.5;exitDx=0;exitDy=0;entryX=0.028;entryY=0.367;entryDx=0;entryDy=0;entryPerimeter=0;strokeColor=light-dark(#000000,#00FF00);" edge="1" parent="1" source="CLYXZgzsEHvx2UhTFof5-38" target="CLYXZgzsEHvx2UhTFof5-18">
          <mxGeometry relative="1" as="geometry" />
        </mxCell>
        <mxCell id="CLYXZgzsEHvx2UhTFof5-45" style="edgeStyle=orthogonalEdgeStyle;rounded=0;orthogonalLoop=1;jettySize=auto;html=1;exitX=1;exitY=0.25;exitDx=0;exitDy=0;entryX=1;entryY=0.5;entryDx=0;entryDy=0;" edge="1" parent="1" source="CLYXZgzsEHvx2UhTFof5-39" target="CLYXZgzsEHvx2UhTFof5-39">
          <mxGeometry relative="1" as="geometry" />
        </mxCell>
        <mxCell id="CLYXZgzsEHvx2UhTFof5-48" style="edgeStyle=orthogonalEdgeStyle;rounded=0;orthogonalLoop=1;jettySize=auto;html=1;exitX=0;exitY=0.75;exitDx=0;exitDy=0;entryX=0.006;entryY=0.122;entryDx=0;entryDy=0;entryPerimeter=0;strokeColor=light-dark(#000000,#00FF00);" edge="1" parent="1" source="CLYXZgzsEHvx2UhTFof5-38" target="CLYXZgzsEHvx2UhTFof5-40">
          <mxGeometry relative="1" as="geometry">
            <Array as="points">
              <mxPoint x="280" y="170" />
              <mxPoint x="260" y="170" />
              <mxPoint x="260" y="361" />
            </Array>
          </mxGeometry>
        </mxCell>
      </root>
    </mxGraphModel>
  </diagram>
</mxfile>
